<?xml version="1.0" encoding="UTF-8"?>
<svg xmlns="http://www.w3.org/2000/svg" xmlns:xlink="http://www.w3.org/1999/xlink" viewBox="0 0 48 48" width="48px" height="48px">
<g id="surface2233000">
<path style=" stroke:none;fill-rule:nonzero;fill:rgb(2.352941%,71.372551%,83.137256%);fill-opacity:1;" d="M 6 9 C 5.277344 8.988281 4.609375 9.367188 4.246094 9.992188 C 3.878906 10.613281 3.878906 11.386719 4.246094 12.007812 C 4.609375 12.632812 5.277344 13.011719 6 13 L 42 13 C 42.722656 13.011719 43.390625 12.632812 43.753906 12.007812 C 44.121094 11.386719 44.121094 10.613281 43.753906 9.992188 C 43.390625 9.367188 42.722656 8.988281 42 9 Z M 6 22 C 5.277344 21.988281 4.609375 22.367188 4.246094 22.992188 C 3.878906 23.613281 3.878906 24.386719 4.246094 25.007812 C 4.609375 25.632812 5.277344 26.011719 6 26 L 42 26 C 42.722656 26.011719 43.390625 25.632812 43.753906 25.007812 C 44.121094 24.386719 44.121094 23.613281 43.753906 22.992188 C 43.390625 22.367188 42.722656 21.988281 42 22 Z M 6 35 C 5.277344 34.988281 4.609375 35.367188 4.246094 35.992188 C 3.878906 36.613281 3.878906 37.386719 4.246094 38.007812 C 4.609375 38.632812 5.277344 39.011719 6 39 L 42 39 C 42.722656 39.011719 43.390625 38.632812 43.753906 38.007812 C 44.121094 37.386719 44.121094 36.613281 43.753906 35.992188 C 43.390625 35.367188 42.722656 34.988281 42 35 Z M 6 35 "/>
</g>
</svg>
